<svg width="20" height="20" viewBox="0 0 20 20" fill="none" xmlns="http://www.w3.org/2000/svg">
<path d="M3.82721 18.1345L4.37354 17.8608L3.82721 18.1345ZM16.1741 18.1345L16.7204 18.4083L16.1741 18.1345ZM1.69321 7.87032H18.3081V6.6481H1.69321V7.87032ZM17.9451 7.50732V8.04387H19.1673V7.50732H17.9451ZM15.9724 17.6481H4.02887V18.8703H15.9724V17.6481ZM2.05621 8.04387V7.50732H0.833984V8.04387H2.05621ZM4.37354 17.8608C2.84955 14.8127 2.05616 11.4517 2.05621 8.04387H0.833984C0.833984 11.6421 1.67121 15.1902 3.28087 18.4083L4.37354 17.8608ZM4.02887 17.6481C4.17554 17.6481 4.30876 17.7312 4.37354 17.8608L3.28087 18.4083C3.35046 18.5471 3.45726 18.6638 3.58935 18.7454C3.72144 18.827 3.87362 18.8702 4.02887 18.8703V17.6481ZM15.6278 17.8608C15.6598 17.7968 15.709 17.743 15.7699 17.7054C15.8308 17.6679 15.9009 17.648 15.9724 17.6481V18.8703C16.2902 18.8703 16.5786 18.6919 16.7204 18.4083L15.6278 17.8608ZM17.9451 8.04387C17.9451 11.4514 17.1507 14.8125 15.6278 17.8608L16.7204 18.4083C18.3296 15.1903 19.1673 11.6418 19.1673 8.04387H17.9451ZM18.3081 7.87032C18.2118 7.87032 18.1195 7.83207 18.0514 7.764C17.9833 7.69592 17.9451 7.60359 17.9451 7.50732H19.1673C19.1673 7.27944 19.0768 7.06089 18.9157 6.89976C18.7545 6.73862 18.536 6.6481 18.3081 6.6481V7.87032ZM1.69321 6.6481C1.46533 6.6481 1.24678 6.73862 1.08564 6.89976C0.924509 7.06089 0.833984 7.27944 0.833984 7.50732H2.05621C2.05621 7.60359 2.01796 7.69592 1.94989 7.764C1.88181 7.83207 1.78948 7.87032 1.69321 7.87032V6.6481ZM5.6361 7.57332L9.30276 1.46221L8.25287 0.833984L4.58621 6.9451L5.63487 7.57332H5.6361ZM10.6985 1.46221L14.3652 7.57332L15.4139 6.9451L11.7472 0.833984L10.6985 1.46221Z" fill="white"/>
</svg>
