<svg width="20" height="20" viewBox="0 0 20 20" fill="none" xmlns="http://www.w3.org/2000/svg">
<mask id="path-1-inside-1_3593_77" fill="white">
<path d="M3.82721 18.1345L4.37354 17.8608L3.82721 18.1345ZM16.1741 18.1345L16.7204 18.4083L16.1741 18.1345ZM1.69321 7.87032H18.3081V6.6481H1.69321V7.87032ZM17.9451 7.50732V8.04387H19.1673V7.50732H17.9451ZM15.9724 17.6481H4.02887V18.8703H15.9724V17.6481ZM2.05621 8.04387V7.50732H0.833984V8.04387H2.05621ZM4.37354 17.8608C2.84955 14.8127 2.05616 11.4517 2.05621 8.04387H0.833984C0.833984 11.6421 1.67121 15.1902 3.28087 18.4083L4.37354 17.8608ZM4.02887 17.6481C4.17554 17.6481 4.30876 17.7312 4.37354 17.8608L3.28087 18.4083C3.35045 18.5471 3.45726 18.6638 3.58935 18.7454C3.72144 18.827 3.87362 18.8702 4.02887 18.8703V17.6481ZM15.6278 17.8608C15.6598 17.7968 15.709 17.743 15.7699 17.7054C15.8308 17.6679 15.9009 17.648 15.9724 17.6481V18.8703C16.2902 18.8703 16.5786 18.6919 16.7204 18.4083L15.6278 17.8608ZM17.9451 8.04387C17.9451 11.4514 17.1506 14.8125 15.6278 17.8608L16.7204 18.4083C18.3296 15.1903 19.1673 11.6418 19.1673 8.04387H17.9451ZM18.3081 7.87032C18.2118 7.87032 18.1195 7.83207 18.0514 7.764C17.9833 7.69592 17.9451 7.60359 17.9451 7.50732H19.1673C19.1673 7.27944 19.0768 7.06089 18.9157 6.89976C18.7545 6.73862 18.536 6.6481 18.3081 6.6481V7.87032ZM1.69321 6.6481C1.46533 6.6481 1.24678 6.73862 1.08564 6.89976C0.924509 7.06089 0.833984 7.27944 0.833984 7.50732H2.05621C2.05621 7.60359 2.01796 7.69592 1.94989 7.764C1.88181 7.83207 1.78948 7.87032 1.69321 7.87032V6.6481ZM5.63609 7.57332L9.30276 1.46221L8.25287 0.833984L4.58621 6.9451L5.63487 7.57332H5.63609ZM10.6985 1.46221L14.3652 7.57332L15.4139 6.9451L11.7472 0.833984L10.6985 1.46221V1.46221Z"/>
</mask>
<path d="M1.69321 7.87032H0.693207V8.87032H1.69321V7.87032ZM18.3081 7.87032V8.87032H19.3081V7.87032H18.3081ZM18.3081 6.6481H19.3081V5.6481H18.3081V6.6481ZM1.69321 6.6481V5.6481H0.693207V6.6481H1.69321ZM17.9451 7.50732V6.50732H16.9451V7.50732H17.9451ZM17.9451 8.04387H16.9451V9.04387H17.9451V8.04387ZM19.1673 8.04387V9.04387H20.1673V8.04387H19.1673ZM19.1673 7.50732H20.1673V6.50732H19.1673V7.50732ZM15.9724 17.6481H16.9724V16.6481H15.9724V17.6481ZM4.02887 17.6481V16.6481H3.02887V17.6481H4.02887ZM4.02887 18.8703H3.02887V19.8703H4.02887V18.8703ZM15.9724 18.8703V19.8703H16.9724V18.8703H15.9724ZM2.05621 8.04387V9.04387H3.05621V8.04387H2.05621ZM2.05621 7.50732H3.05621V6.50732H2.05621V7.50732ZM0.833984 7.50732V6.50732H-0.166016V7.50732H0.833984ZM0.833984 8.04387H-0.166016V9.04387H0.833984V8.04387ZM4.37354 17.8608L4.82155 18.7548L5.71477 18.3072L5.26797 17.4136L4.37354 17.8608ZM2.05621 8.04387L3.05621 8.04389L3.05622 7.04387H2.05621V8.04387ZM0.833984 8.04387V7.04387H-0.166016V8.04387H0.833984ZM3.28087 18.4083L2.38651 18.8557L2.8342 19.7507L3.72889 19.3023L3.28087 18.4083ZM4.02887 17.6481V16.6481H3.02887V17.6481H4.02887ZM4.37354 17.8608L4.82155 18.7548L5.71478 18.3072L5.26797 17.4135L4.37354 17.8608ZM3.28087 18.4083L2.83286 17.5143L1.93867 17.9624L2.38693 18.8565L3.28087 18.4083ZM4.02887 18.8703L4.02836 19.8703L5.02887 19.8708V18.8703H4.02887ZM15.6278 17.8608L14.7335 17.4131L14.2861 18.307L15.1797 18.7548L15.6278 17.8608ZM15.9724 17.6481H16.9724V16.6491L15.9734 16.6481L15.9724 17.6481ZM15.9724 18.8703H14.9724V19.8703H15.9724V18.8703ZM16.7204 18.4083L17.6149 18.8555L18.0617 17.9619L17.1684 17.5143L16.7204 18.4083ZM17.9451 8.04387V7.04387H16.9451V8.04387H17.9451ZM15.6278 17.8608L14.7332 17.4138L14.2868 18.3073L15.1797 18.7548L15.6278 17.8608ZM16.7204 18.4083L16.2724 19.3023L17.1672 19.7507L17.6148 18.8556L16.7204 18.4083ZM19.1673 8.04387L20.1673 8.04387L20.1673 7.04387H19.1673V8.04387ZM18.3081 7.87032V8.87032H19.3081V7.87032H18.3081ZM17.9451 7.50732V6.50732H16.9451V7.50732H17.9451ZM19.1673 7.50732V8.50732H20.1673L20.1673 7.50732L19.1673 7.50732ZM18.3081 6.6481L18.3081 5.6481L17.3081 5.6481V6.6481H18.3081ZM1.69321 6.6481H2.69321V5.6481H1.69321V6.6481ZM0.833984 7.50732L-0.166016 7.50732L-0.166016 8.50732H0.833984V7.50732ZM2.05621 7.50732L3.05621 7.50732L3.05621 6.50732H2.05621V7.50732ZM1.69321 7.87032H0.693207V8.87032L1.69321 8.87032L1.69321 7.87032ZM5.63609 7.57332V8.57332H6.20229L6.49359 8.08781L5.63609 7.57332ZM9.30276 1.46221L10.1603 1.9767L10.6754 1.11818L9.81623 0.604097L9.30276 1.46221ZM8.25287 0.833984L8.76634 -0.0241248L7.90926 -0.536977L7.39538 0.319489L8.25287 0.833984ZM4.58621 6.9451L3.72871 6.4306L3.21386 7.28868L4.0723 7.80294L4.58621 6.9451ZM5.63487 7.57332L5.12097 8.43116L5.35826 8.57332H5.63487V7.57332ZM14.3652 7.57332L13.5077 8.08781L14.0219 8.94472L14.8791 8.43116L14.3652 7.57332ZM15.4139 6.9451L15.9278 7.80294L16.7862 7.28868L16.2714 6.4306L15.4139 6.9451ZM11.7472 0.833984L12.6047 0.319489L12.0906 -0.537417L11.2333 -0.0238611L11.7472 0.833984ZM10.6985 1.46221L10.1846 0.604361L9.3262 1.11862L9.84105 1.9767L10.6985 1.46221ZM4.27522 19.0286L4.82155 18.7548L3.92553 16.9667L3.37919 17.2405L4.27522 19.0286ZM3.92553 16.9667L3.37919 17.2405L4.27522 19.0286L4.82155 18.7548L3.92553 16.9667ZM15.7261 19.0286L16.2724 19.3023L17.1684 17.5143L16.6221 17.2405L15.7261 19.0286ZM17.1684 17.5143L16.6221 17.2405L15.7261 19.0286L16.2724 19.3023L17.1684 17.5143ZM1.69321 8.87032H18.3081V6.87032H1.69321V8.87032ZM19.3081 7.87032V6.6481H17.3081V7.87032H19.3081ZM18.3081 5.6481H1.69321V7.6481H18.3081V5.6481ZM0.693207 6.6481V7.87032H2.69321V6.6481H0.693207ZM16.9451 7.50732V8.04387H18.9451V7.50732H16.9451ZM17.9451 9.04387H19.1673V7.04387H17.9451V9.04387ZM20.1673 8.04387V7.50732H18.1673V8.04387H20.1673ZM19.1673 6.50732H17.9451V8.50732H19.1673V6.50732ZM15.9724 16.6481H4.02887V18.6481H15.9724V16.6481ZM3.02887 17.6481V18.8703H5.02887V17.6481H3.02887ZM4.02887 19.8703H15.9724V17.8703H4.02887V19.8703ZM16.9724 18.8703V17.6481H14.9724V18.8703H16.9724ZM3.05621 8.04387V7.50732H1.05621V8.04387H3.05621ZM2.05621 6.50732H0.833984V8.50732H2.05621V6.50732ZM-0.166016 7.50732V8.04387H1.83398V7.50732H-0.166016ZM0.833984 9.04387H2.05621V7.04387H0.833984V9.04387ZM5.26797 17.4136C3.81341 14.5044 3.05617 11.2965 3.05621 8.04389L1.05621 8.04386C1.05616 11.6069 1.88569 15.1211 3.47911 18.308L5.26797 17.4136ZM2.05621 7.04387H0.833984V9.04387H2.05621V7.04387ZM-0.166016 8.04387C-0.166016 11.7973 0.707321 15.4986 2.38651 18.8557L4.17523 17.961C2.63509 14.8819 1.83398 11.4869 1.83398 8.04387H-0.166016ZM3.72889 19.3023L4.82155 18.7548L3.92553 16.9667L2.83286 17.5143L3.72889 19.3023ZM4.02887 18.6481C3.79576 18.6481 3.58327 18.5163 3.47911 18.308L5.26797 17.4135C5.03425 16.9461 4.55532 16.6481 4.02887 16.6481V18.6481ZM3.92553 16.9667L2.83286 17.5143L3.72889 19.3023L4.82155 18.7548L3.92553 16.9667ZM2.38693 18.8565C2.53962 19.1611 2.77399 19.4172 3.06386 19.5962L4.11484 17.8946C4.14053 17.9105 4.16129 17.9332 4.17482 17.9601L2.38693 18.8565ZM3.06386 19.5962C3.35372 19.7752 3.68766 19.8701 4.02836 19.8703L4.02939 17.8703C4.05957 17.8703 4.08916 17.8787 4.11484 17.8946L3.06386 19.5962ZM5.02887 18.8703V17.6481H3.02887V18.8703H5.02887ZM16.522 18.3084C16.4708 18.4106 16.3922 18.4965 16.295 18.5565L15.2448 16.8544C15.0258 16.9895 14.8487 17.183 14.7335 17.4131L16.522 18.3084ZM16.295 18.5565C16.1977 18.6165 16.0857 18.6482 15.9714 18.6481L15.9734 16.6481C15.7161 16.6478 15.4638 16.7193 15.2448 16.8544L16.295 18.5565ZM14.9724 17.6481V18.8703H16.9724V17.6481H14.9724ZM15.9724 19.8703C16.6689 19.8703 17.3036 19.478 17.6149 18.8555L15.826 17.9611C15.8537 17.9058 15.9116 17.8703 15.9724 17.8703V19.8703ZM17.1684 17.5143L16.0758 16.9667L15.1797 18.7548L16.2724 19.3023L17.1684 17.5143ZM16.9451 8.04387C16.9451 11.296 16.1869 14.5041 14.7332 17.4138L16.5223 18.3077C18.1144 15.121 18.9451 11.6069 18.9451 8.04387H16.9451ZM15.1797 18.7548L16.2724 19.3023L17.1684 17.5143L16.0758 16.9667L15.1797 18.7548ZM17.6148 18.8556C19.2934 15.4987 20.1673 11.797 20.1673 8.04387L18.1673 8.04388C18.1673 11.4865 17.3657 14.8819 15.826 17.9611L17.6148 18.8556ZM19.1673 7.04387H17.9451V9.04387H19.1673V7.04387ZM18.3081 6.87032C18.477 6.87032 18.6391 6.93743 18.7585 7.05689L17.3443 8.4711C17.5999 8.72671 17.9466 8.87032 18.3081 8.87032V6.87032ZM18.7585 7.05689C18.878 7.17635 18.9451 7.33837 18.9451 7.50732H16.9451C16.9451 7.86881 17.0887 8.21549 17.3443 8.4711L18.7585 7.05689ZM17.9451 8.50732H19.1673V6.50732H17.9451V8.50732ZM20.1673 7.50732C20.1673 7.01422 19.9714 6.54132 19.6228 6.19265L18.2085 7.60686C18.1821 7.58046 18.1673 7.54465 18.1673 7.50732L20.1673 7.50732ZM19.6228 6.19265C19.2741 5.84398 18.8012 5.6481 18.3081 5.6481L18.3081 7.6481C18.2708 7.6481 18.2349 7.63326 18.2085 7.60686L19.6228 6.19265ZM17.3081 6.6481V7.87032H19.3081V6.6481H17.3081ZM1.69321 5.6481C1.20011 5.6481 0.727209 5.84398 0.378538 6.19265L1.79275 7.60686C1.76635 7.63326 1.73054 7.6481 1.69321 7.6481V5.6481ZM0.378538 6.19265C0.0298661 6.54132 -0.166016 7.01422 -0.166016 7.50732L1.83398 7.50732C1.83398 7.54465 1.81915 7.58046 1.79275 7.60686L0.378538 6.19265ZM0.833984 8.50732H2.05621V6.50732H0.833984V8.50732ZM1.05621 7.50732C1.05621 7.33837 1.12332 7.17635 1.24278 7.05689L2.65699 8.4711C2.9126 8.21549 3.05621 7.86881 3.05621 7.50732L1.05621 7.50732ZM1.24278 7.05689C1.36224 6.93743 1.52426 6.87032 1.69321 6.87032L1.69321 8.87032C2.0547 8.87032 2.40138 8.72672 2.65699 8.4711L1.24278 7.05689ZM2.69321 7.87032V6.6481H0.693207V7.87032H2.69321ZM6.49359 8.08781L10.1603 1.9767L8.44527 0.947711L4.7786 7.05882L6.49359 8.08781ZM9.81623 0.604097L8.76634 -0.0241248L7.73941 1.69209L8.78929 2.32032L9.81623 0.604097ZM7.39538 0.319489L3.72871 6.4306L5.4437 7.45959L9.11037 1.34848L7.39538 0.319489ZM4.0723 7.80294L5.12097 8.43116L6.14878 6.71547L5.10011 6.08725L4.0723 7.80294ZM5.63487 8.57332H5.63609V6.57332H5.63487V8.57332ZM9.84105 1.9767L13.5077 8.08781L15.2227 7.05882L11.556 0.947711L9.84105 1.9767ZM14.8791 8.43116L15.9278 7.80294L14.9 6.08725L13.8513 6.71547L14.8791 8.43116ZM16.2714 6.4306L12.6047 0.319489L10.8897 1.34848L14.5564 7.45959L16.2714 6.4306ZM11.2333 -0.0238611L10.1846 0.604361L11.2124 2.32005L12.2611 1.69183L11.2333 -0.0238611Z" fill="#06002B" mask="url(#path-1-inside-1_3593_77)"/>
</svg>
